<svg width="237" height="50" viewBox="0 0 237 50" fill="none" xmlns="http://www.w3.org/2000/svg">
<path d="M73.4231 15.911C75.2771 15.911 76.7621 16.19 77.8781 16.748C78.9941 17.306 79.8491 18.044 80.4431 18.962C81.0371 19.88 81.4241 20.924 81.6041 22.094C81.8021 23.264 81.9011 24.452 81.9011 25.658C81.9011 26.972 81.7301 28.214 81.3881 29.384C81.0641 30.554 80.5511 31.58 79.8491 32.462C79.1651 33.326 78.2831 34.019 77.2031 34.541C76.1231 35.045 74.8361 35.297 73.3421 35.297C72.1541 35.297 71.2001 35.207 70.4801 35.027C69.7781 34.865 69.2291 34.613 68.8331 34.271C68.4551 33.929 68.2031 33.497 68.0771 32.975C67.9511 32.453 67.8881 31.841 67.8881 31.139V20.987C67.8881 20.213 67.9511 19.511 68.0771 18.881C68.2211 18.251 68.4911 17.72 68.8871 17.288C69.2831 16.838 69.8411 16.496 70.5611 16.262C71.2991 16.028 72.2531 15.911 73.4231 15.911ZM73.5311 32.597C74.6471 32.597 75.5651 32.399 76.2851 32.003C77.0231 31.589 77.6081 31.049 78.0401 30.383C78.4721 29.717 78.7691 28.961 78.9311 28.115C79.1111 27.269 79.2011 26.405 79.2011 25.523C79.2011 24.713 79.1381 23.903 79.0121 23.093C78.8861 22.265 78.6251 21.518 78.2291 20.852C77.8331 20.186 77.2661 19.646 76.5281 19.232C75.7901 18.818 74.8091 18.611 73.5851 18.611C72.4691 18.611 71.6951 18.773 71.2631 19.097C70.8311 19.421 70.6151 19.916 70.6151 20.582V30.923C70.6151 31.481 70.8131 31.904 71.2091 32.192C71.6231 32.462 72.3971 32.597 73.5311 32.597ZM90.8689 21.311C91.8949 21.311 92.8129 21.473 93.6229 21.797C94.4329 22.103 95.1169 22.544 95.6749 23.12C96.2509 23.696 96.6919 24.398 96.9979 25.226C97.3039 26.054 97.4569 26.981 97.4569 28.007C97.4569 29.141 97.2769 30.158 96.9169 31.058C96.5749 31.958 96.0889 32.723 95.4589 33.353C94.8469 33.983 94.1089 34.469 93.2449 34.811C92.3989 35.153 91.4719 35.324 90.4639 35.324C89.3659 35.324 88.3939 35.135 87.5479 34.757C86.7199 34.379 86.0179 33.866 85.4419 33.218C84.8839 32.57 84.4609 31.823 84.1729 30.977C83.8849 30.131 83.7409 29.24 83.7409 28.304C83.7409 27.278 83.9029 26.342 84.2269 25.496C84.5689 24.632 85.0459 23.894 85.6579 23.282C86.2879 22.652 87.0439 22.166 87.9259 21.824C88.8079 21.482 89.7889 21.311 90.8689 21.311ZM90.5719 32.84C91.3099 32.84 91.9399 32.714 92.4619 32.462C92.9839 32.192 93.4069 31.841 93.7309 31.409C94.0729 30.977 94.3159 30.491 94.4599 29.951C94.6219 29.393 94.7029 28.817 94.7029 28.223C94.7029 27.611 94.6219 27.044 94.4599 26.522C94.3159 25.982 94.0819 25.514 93.7579 25.118C93.4519 24.722 93.0469 24.416 92.5429 24.2C92.0569 23.966 91.4719 23.849 90.7879 23.849C90.0859 23.849 89.4739 23.966 88.9519 24.2C88.4299 24.434 87.9889 24.758 87.6289 25.172C87.2869 25.568 87.0259 26.045 86.8459 26.603C86.6659 27.161 86.5759 27.764 86.5759 28.412C86.5759 29.726 86.9089 30.797 87.5749 31.625C88.2589 32.435 89.2579 32.84 90.5719 32.84ZM105.455 38.699C106.301 38.699 107.012 38.528 107.588 38.186C108.182 37.862 108.659 37.385 109.019 36.755C109.379 36.143 109.631 35.405 109.775 34.541C109.937 33.659 110.018 32.669 110.018 31.571C109.856 32.147 109.622 32.633 109.316 33.029C109.01 33.425 108.65 33.749 108.236 34.001C107.84 34.235 107.39 34.406 106.886 34.514C106.382 34.622 105.86 34.676 105.32 34.676C104.492 34.676 103.709 34.559 102.971 34.325C102.233 34.091 101.585 33.722 101.027 33.218C100.487 32.714 100.055 32.075 99.7308 31.301C99.4068 30.509 99.2448 29.564 99.2448 28.466C99.2448 27.404 99.3978 26.432 99.7038 25.55C100.028 24.65 100.487 23.876 101.081 23.228C101.693 22.58 102.431 22.076 103.295 21.716C104.159 21.356 105.149 21.176 106.265 21.176C106.859 21.176 107.381 21.23 107.831 21.338C108.299 21.446 108.713 21.59 109.073 21.77C109.433 21.95 109.748 22.166 110.018 22.418C110.306 22.67 110.567 22.94 110.801 23.228C111.485 24.092 111.98 25.118 112.286 26.306C112.592 27.476 112.745 28.889 112.745 30.545C112.745 31.769 112.637 33.02 112.421 34.298C112.223 35.576 111.854 36.728 111.314 37.754C110.774 38.798 110.027 39.644 109.073 40.292C108.119 40.958 106.895 41.291 105.401 41.291C105.131 41.291 104.825 41.273 104.483 41.237C104.159 41.219 103.817 41.183 103.457 41.129C103.115 41.075 102.773 40.994 102.431 40.886C102.089 40.796 101.774 40.67 101.486 40.508C101.126 40.31 100.838 40.121 100.622 39.941C100.406 39.761 100.298 39.464 100.298 39.05C100.298 38.708 100.37 38.393 100.514 38.105C100.676 37.835 100.946 37.7 101.324 37.7C101.504 37.7 101.702 37.754 101.918 37.862C102.134 37.97 102.395 38.078 102.701 38.186C103.025 38.312 103.403 38.429 103.835 38.537C104.285 38.645 104.825 38.699 105.455 38.699ZM105.59 32.219C106.292 32.219 106.886 32.093 107.372 31.841C107.876 31.571 108.281 31.22 108.587 30.788C108.911 30.356 109.145 29.87 109.289 29.33C109.451 28.79 109.532 28.25 109.532 27.71C109.532 27.26 109.469 26.81 109.343 26.36C109.235 25.892 109.046 25.469 108.776 25.091C108.506 24.713 108.137 24.407 107.669 24.173C107.201 23.939 106.616 23.822 105.914 23.822C104.726 23.822 103.763 24.182 103.025 24.902C102.305 25.622 101.945 26.684 101.945 28.088C101.945 29.402 102.269 30.419 102.917 31.139C103.565 31.859 104.456 32.219 105.59 32.219ZM119.943 20.906C120.321 20.906 120.798 20.942 121.374 21.014C121.95 21.068 122.499 21.185 123.021 21.365C123.543 21.527 123.993 21.761 124.371 22.067C124.749 22.373 124.938 22.76 124.938 23.228C124.938 23.498 124.857 23.732 124.695 23.93C124.551 24.128 124.317 24.227 123.993 24.227C123.759 24.227 123.489 24.191 123.183 24.119C122.895 24.047 122.571 23.966 122.211 23.876C121.869 23.768 121.491 23.678 121.077 23.606C120.681 23.534 120.258 23.498 119.808 23.498C119.052 23.498 118.431 23.615 117.945 23.849C117.477 24.083 117.243 24.452 117.243 24.956C117.243 25.244 117.324 25.487 117.486 25.685C117.666 25.883 117.9 26.063 118.188 26.225C118.494 26.369 118.845 26.495 119.241 26.603C119.655 26.711 120.087 26.819 120.537 26.927C121.095 27.071 121.644 27.233 122.184 27.413C122.742 27.593 123.237 27.845 123.669 28.169C124.101 28.475 124.452 28.871 124.722 29.357C124.992 29.825 125.127 30.41 125.127 31.112C125.127 32.444 124.623 33.506 123.615 34.298C122.607 35.072 121.122 35.459 119.16 35.459C118.728 35.459 118.215 35.423 117.621 35.351C117.027 35.297 116.469 35.18 115.947 35C115.425 34.838 114.975 34.604 114.597 34.298C114.237 33.974 114.057 33.551 114.057 33.029C114.057 32.669 114.138 32.399 114.3 32.219C114.48 32.021 114.696 31.922 114.948 31.922C115.146 31.922 115.353 31.985 115.569 32.111C115.785 32.237 116.046 32.372 116.352 32.516C116.658 32.66 117.027 32.795 117.459 32.921C117.891 33.047 118.422 33.11 119.052 33.11C119.286 33.11 119.592 33.101 119.97 33.083C120.348 33.047 120.717 32.966 121.077 32.84C121.455 32.714 121.77 32.543 122.022 32.327C122.292 32.093 122.427 31.769 122.427 31.355C122.427 31.031 122.337 30.761 122.157 30.545C121.977 30.311 121.734 30.113 121.428 29.951C121.122 29.789 120.762 29.654 120.348 29.546C119.952 29.42 119.529 29.294 119.079 29.168C118.557 29.024 118.026 28.862 117.486 28.682C116.964 28.502 116.487 28.268 116.055 27.98C115.623 27.692 115.272 27.332 115.002 26.9C114.732 26.45 114.597 25.901 114.597 25.253C114.597 24.641 114.723 24.074 114.975 23.552C115.227 23.012 115.587 22.544 116.055 22.148C116.523 21.752 117.081 21.446 117.729 21.23C118.395 21.014 119.133 20.906 119.943 20.906ZM140.462 35.27C139.382 35.27 138.365 35.054 137.411 34.622C136.475 34.19 135.656 33.569 134.954 32.759C134.252 31.931 133.694 30.923 133.28 29.735C132.884 28.547 132.686 27.197 132.686 25.685C132.686 24.263 132.857 22.958 133.199 21.77C133.559 20.582 134.081 19.556 134.765 18.692C135.467 17.828 136.331 17.162 137.357 16.694C138.383 16.208 139.571 15.965 140.921 15.965C142.019 15.965 143.063 16.163 144.053 16.559C145.043 16.955 145.907 17.549 146.645 18.341C147.401 19.133 147.995 20.123 148.427 21.311C148.859 22.499 149.075 23.885 149.075 25.469C149.075 26.783 148.895 28.034 148.535 29.222C148.193 30.41 147.662 31.454 146.942 32.354C146.24 33.236 145.349 33.947 144.269 34.487C143.189 35.009 141.92 35.27 140.462 35.27ZM140.516 32.732C141.506 32.732 142.37 32.534 143.108 32.138C143.846 31.724 144.458 31.184 144.944 30.518C145.43 29.852 145.79 29.087 146.024 28.223C146.258 27.341 146.375 26.441 146.375 25.523C146.375 24.407 146.222 23.417 145.916 22.553C145.628 21.671 145.232 20.933 144.728 20.339C144.224 19.745 143.639 19.295 142.973 18.989C142.307 18.665 141.596 18.503 140.84 18.503C139.94 18.503 139.148 18.692 138.464 19.07C137.798 19.448 137.231 19.961 136.763 20.609C136.313 21.257 135.971 22.022 135.737 22.904C135.503 23.768 135.386 24.695 135.386 25.685C135.386 26.747 135.521 27.719 135.791 28.601C136.061 29.465 136.421 30.203 136.871 30.815C137.339 31.427 137.888 31.904 138.518 32.246C139.148 32.57 139.814 32.732 140.516 32.732ZM153.254 24.038C153.056 24.056 152.858 24.074 152.66 24.092C152.48 24.092 152.3 24.092 152.12 24.092C151.526 24.092 151.085 24.002 150.797 23.822C150.491 23.624 150.338 23.255 150.338 22.715C150.338 22.301 150.455 21.977 150.689 21.743C150.905 21.491 151.346 21.365 152.012 21.365C152.426 21.365 152.849 21.392 153.281 21.446V19.88C153.281 19.16 153.362 18.476 153.524 17.828C153.686 17.18 153.938 16.613 154.28 16.127C154.622 15.623 155.063 15.227 155.603 14.939C156.161 14.633 156.836 14.48 157.628 14.48C158.348 14.48 158.852 14.588 159.14 14.804C159.428 15.002 159.572 15.335 159.572 15.803C159.572 16.271 159.383 16.559 159.005 16.667C158.627 16.775 158.195 16.829 157.709 16.829C157.115 16.829 156.665 17.09 156.359 17.612C156.071 18.134 155.927 18.773 155.927 19.529V21.419C156.161 21.365 156.386 21.338 156.602 21.338C156.836 21.32 157.079 21.311 157.331 21.311C157.997 21.311 158.465 21.419 158.735 21.635C159.023 21.851 159.167 22.193 159.167 22.661C159.167 23.255 158.978 23.642 158.6 23.822C158.222 23.984 157.718 24.065 157.088 24.065C156.926 24.065 156.737 24.065 156.521 24.065C156.323 24.065 156.125 24.047 155.927 24.011V33.299C155.927 33.731 155.891 34.064 155.819 34.298C155.747 34.532 155.648 34.712 155.522 34.838C155.396 34.964 155.252 35.036 155.09 35.054C154.928 35.09 154.757 35.108 154.577 35.108C154.415 35.108 154.253 35.081 154.091 35.027C153.929 34.991 153.785 34.91 153.659 34.784C153.551 34.64 153.452 34.451 153.362 34.217C153.29 33.983 153.254 33.686 153.254 33.326V24.038ZM171.72 15.911C173.574 15.911 175.059 16.19 176.175 16.748C177.291 17.306 178.146 18.044 178.74 18.962C179.334 19.88 179.721 20.924 179.901 22.094C180.099 23.264 180.198 24.452 180.198 25.658C180.198 26.972 180.027 28.214 179.685 29.384C179.361 30.554 178.848 31.58 178.146 32.462C177.462 33.326 176.58 34.019 175.5 34.541C174.42 35.045 173.133 35.297 171.639 35.297C170.451 35.297 169.497 35.207 168.777 35.027C168.075 34.865 167.526 34.613 167.13 34.271C166.752 33.929 166.5 33.497 166.374 32.975C166.248 32.453 166.185 31.841 166.185 31.139V20.987C166.185 20.213 166.248 19.511 166.374 18.881C166.518 18.251 166.788 17.72 167.184 17.288C167.58 16.838 168.138 16.496 168.858 16.262C169.596 16.028 170.55 15.911 171.72 15.911ZM171.828 32.597C172.944 32.597 173.862 32.399 174.582 32.003C175.32 31.589 175.905 31.049 176.337 30.383C176.769 29.717 177.066 28.961 177.228 28.115C177.408 27.269 177.498 26.405 177.498 25.523C177.498 24.713 177.435 23.903 177.309 23.093C177.183 22.265 176.922 21.518 176.526 20.852C176.13 20.186 175.563 19.646 174.825 19.232C174.087 18.818 173.106 18.611 171.882 18.611C170.766 18.611 169.992 18.773 169.56 19.097C169.128 19.421 168.912 19.916 168.912 20.582V30.923C168.912 31.481 169.11 31.904 169.506 32.192C169.92 32.462 170.694 32.597 171.828 32.597ZM193.999 35.108C193.711 35.108 193.477 35.063 193.297 34.973C193.135 34.865 193.009 34.73 192.919 34.568C192.829 34.406 192.766 34.217 192.73 34.001C192.694 33.767 192.667 33.524 192.649 33.272C192.199 33.83 191.614 34.298 190.894 34.676C190.192 35.054 189.292 35.243 188.194 35.243C187.492 35.243 186.772 35.144 186.034 34.946C185.314 34.73 184.657 34.37 184.063 33.866C183.469 33.344 182.983 32.651 182.605 31.787C182.227 30.923 182.038 29.834 182.038 28.52C182.038 27.494 182.164 26.531 182.416 25.631C182.668 24.731 183.046 23.948 183.55 23.282C184.072 22.598 184.72 22.058 185.494 21.662C186.268 21.266 187.177 21.068 188.221 21.068C189.139 21.068 189.958 21.239 190.678 21.581C191.398 21.905 192.046 22.445 192.622 23.201C192.622 22.985 192.631 22.769 192.649 22.553C192.667 22.319 192.712 22.112 192.784 21.932C192.874 21.734 193.009 21.581 193.189 21.473C193.369 21.347 193.612 21.284 193.918 21.284C194.188 21.284 194.44 21.392 194.674 21.608C194.908 21.824 195.043 22.292 195.079 23.012C195.133 23.966 195.169 24.821 195.187 25.577C195.223 26.333 195.241 27.116 195.241 27.926C195.241 28.916 195.232 29.825 195.214 30.653C195.196 31.481 195.151 32.363 195.079 33.299C195.043 33.713 194.989 34.046 194.917 34.298C194.863 34.532 194.791 34.712 194.701 34.838C194.611 34.946 194.503 35.018 194.377 35.054C194.251 35.09 194.125 35.108 193.999 35.108ZM192.541 28.25C192.541 27.314 192.397 26.549 192.109 25.955C191.839 25.361 191.488 24.902 191.056 24.578C190.642 24.236 190.192 24.002 189.706 23.876C189.22 23.75 188.77 23.687 188.356 23.687C187.708 23.687 187.15 23.804 186.682 24.038C186.232 24.272 185.863 24.596 185.575 25.01C185.287 25.406 185.071 25.883 184.927 26.441C184.801 26.981 184.738 27.575 184.738 28.223C184.738 29.807 185.08 30.977 185.764 31.733C186.466 32.489 187.411 32.867 188.599 32.867C189.301 32.867 189.895 32.75 190.381 32.516C190.885 32.264 191.29 31.931 191.596 31.517C191.92 31.103 192.154 30.617 192.298 30.059C192.46 29.483 192.541 28.88 192.541 28.25ZM198.568 33.434C198.55 32.786 198.532 32.03 198.514 31.166C198.496 30.302 198.478 29.366 198.46 28.358C198.46 27.35 198.451 26.288 198.433 25.172C198.433 24.056 198.433 22.913 198.433 21.743C198.433 20.465 198.442 19.367 198.46 18.449C198.478 17.531 198.523 16.775 198.595 16.181C198.685 15.587 198.82 15.155 199 14.885C199.18 14.597 199.432 14.453 199.756 14.453C200.062 14.453 200.332 14.552 200.566 14.75C200.8 14.948 200.935 15.407 200.971 16.127C201.043 17.423 201.088 18.773 201.106 20.177C201.124 21.563 201.133 22.931 201.133 24.281C201.133 25.091 201.133 25.874 201.133 26.63C201.133 27.368 201.124 28.106 201.106 28.844C201.088 29.564 201.07 30.302 201.052 31.058C201.034 31.814 201.007 32.597 200.971 33.407C200.953 33.839 200.908 34.172 200.836 34.406C200.782 34.64 200.701 34.82 200.593 34.946C200.485 35.072 200.359 35.144 200.215 35.162C200.089 35.198 199.936 35.216 199.756 35.216C199.432 35.216 199.162 35.108 198.946 34.892C198.73 34.658 198.604 34.172 198.568 33.434ZM204.606 33.434C204.588 32.786 204.57 32.03 204.552 31.166C204.534 30.302 204.516 29.366 204.498 28.358C204.498 27.35 204.489 26.288 204.471 25.172C204.471 24.056 204.471 22.913 204.471 21.743C204.471 20.465 204.48 19.367 204.498 18.449C204.516 17.531 204.561 16.775 204.633 16.181C204.723 15.587 204.858 15.155 205.038 14.885C205.218 14.597 205.47 14.453 205.794 14.453C206.1 14.453 206.37 14.552 206.604 14.75C206.838 14.948 206.973 15.407 207.009 16.127C207.081 17.423 207.126 18.773 207.144 20.177C207.162 21.563 207.171 22.931 207.171 24.281C207.171 25.091 207.171 25.874 207.171 26.63C207.171 27.368 207.162 28.106 207.144 28.844C207.126 29.564 207.108 30.302 207.09 31.058C207.072 31.814 207.045 32.597 207.009 33.407C206.991 33.839 206.946 34.172 206.874 34.406C206.82 34.64 206.739 34.82 206.631 34.946C206.523 35.072 206.397 35.144 206.253 35.162C206.127 35.198 205.974 35.216 205.794 35.216C205.47 35.216 205.2 35.108 204.984 34.892C204.768 34.658 204.642 34.172 204.606 33.434ZM221.552 35.108C221.264 35.108 221.03 35.063 220.85 34.973C220.688 34.865 220.562 34.73 220.472 34.568C220.382 34.406 220.319 34.217 220.283 34.001C220.247 33.767 220.22 33.524 220.202 33.272C219.752 33.83 219.167 34.298 218.447 34.676C217.745 35.054 216.845 35.243 215.747 35.243C215.045 35.243 214.325 35.144 213.587 34.946C212.867 34.73 212.21 34.37 211.616 33.866C211.022 33.344 210.536 32.651 210.158 31.787C209.78 30.923 209.591 29.834 209.591 28.52C209.591 27.494 209.717 26.531 209.969 25.631C210.221 24.731 210.599 23.948 211.103 23.282C211.625 22.598 212.273 22.058 213.047 21.662C213.821 21.266 214.73 21.068 215.774 21.068C216.692 21.068 217.511 21.239 218.231 21.581C218.951 21.905 219.599 22.445 220.175 23.201C220.175 22.985 220.184 22.769 220.202 22.553C220.22 22.319 220.265 22.112 220.337 21.932C220.427 21.734 220.562 21.581 220.742 21.473C220.922 21.347 221.165 21.284 221.471 21.284C221.741 21.284 221.993 21.392 222.227 21.608C222.461 21.824 222.596 22.292 222.632 23.012C222.686 23.966 222.722 24.821 222.74 25.577C222.776 26.333 222.794 27.116 222.794 27.926C222.794 28.916 222.785 29.825 222.767 30.653C222.749 31.481 222.704 32.363 222.632 33.299C222.596 33.713 222.542 34.046 222.47 34.298C222.416 34.532 222.344 34.712 222.254 34.838C222.164 34.946 222.056 35.018 221.93 35.054C221.804 35.09 221.678 35.108 221.552 35.108ZM220.094 28.25C220.094 27.314 219.95 26.549 219.662 25.955C219.392 25.361 219.041 24.902 218.609 24.578C218.195 24.236 217.745 24.002 217.259 23.876C216.773 23.75 216.323 23.687 215.909 23.687C215.261 23.687 214.703 23.804 214.235 24.038C213.785 24.272 213.416 24.596 213.128 25.01C212.84 25.406 212.624 25.883 212.48 26.441C212.354 26.981 212.291 27.575 212.291 28.223C212.291 29.807 212.633 30.977 213.317 31.733C214.019 32.489 214.964 32.867 216.152 32.867C216.854 32.867 217.448 32.75 217.934 32.516C218.438 32.264 218.843 31.931 219.149 31.517C219.473 31.103 219.707 30.617 219.851 30.059C220.013 29.483 220.094 28.88 220.094 28.25ZM230.712 20.906C231.09 20.906 231.567 20.942 232.143 21.014C232.719 21.068 233.268 21.185 233.79 21.365C234.312 21.527 234.762 21.761 235.14 22.067C235.518 22.373 235.707 22.76 235.707 23.228C235.707 23.498 235.626 23.732 235.464 23.93C235.32 24.128 235.086 24.227 234.762 24.227C234.528 24.227 234.258 24.191 233.952 24.119C233.664 24.047 233.34 23.966 232.98 23.876C232.638 23.768 232.26 23.678 231.846 23.606C231.45 23.534 231.027 23.498 230.577 23.498C229.821 23.498 229.2 23.615 228.714 23.849C228.246 24.083 228.012 24.452 228.012 24.956C228.012 25.244 228.093 25.487 228.255 25.685C228.435 25.883 228.669 26.063 228.957 26.225C229.263 26.369 229.614 26.495 230.01 26.603C230.424 26.711 230.856 26.819 231.306 26.927C231.864 27.071 232.413 27.233 232.953 27.413C233.511 27.593 234.006 27.845 234.438 28.169C234.87 28.475 235.221 28.871 235.491 29.357C235.761 29.825 235.896 30.41 235.896 31.112C235.896 32.444 235.392 33.506 234.384 34.298C233.376 35.072 231.891 35.459 229.929 35.459C229.497 35.459 228.984 35.423 228.39 35.351C227.796 35.297 227.238 35.18 226.716 35C226.194 34.838 225.744 34.604 225.366 34.298C225.006 33.974 224.826 33.551 224.826 33.029C224.826 32.669 224.907 32.399 225.069 32.219C225.249 32.021 225.465 31.922 225.717 31.922C225.915 31.922 226.122 31.985 226.338 32.111C226.554 32.237 226.815 32.372 227.121 32.516C227.427 32.66 227.796 32.795 228.228 32.921C228.66 33.047 229.191 33.11 229.821 33.11C230.055 33.11 230.361 33.101 230.739 33.083C231.117 33.047 231.486 32.966 231.846 32.84C232.224 32.714 232.539 32.543 232.791 32.327C233.061 32.093 233.196 31.769 233.196 31.355C233.196 31.031 233.106 30.761 232.926 30.545C232.746 30.311 232.503 30.113 232.197 29.951C231.891 29.789 231.531 29.654 231.117 29.546C230.721 29.42 230.298 29.294 229.848 29.168C229.326 29.024 228.795 28.862 228.255 28.682C227.733 28.502 227.256 28.268 226.824 27.98C226.392 27.692 226.041 27.332 225.771 26.9C225.501 26.45 225.366 25.901 225.366 25.253C225.366 24.641 225.492 24.074 225.744 23.552C225.996 23.012 226.356 22.544 226.824 22.148C227.292 21.752 227.85 21.446 228.498 21.23C229.164 21.014 229.902 20.906 230.712 20.906Z" fill="#FF0330"/>
<path d="M1.86555 22.7851L1.86556 22.7851C2.92642 25.1383 4.4678 26.9738 6.07146 28.0512C7.68425 29.1348 9.26872 29.4018 10.5154 28.8394C11.7622 28.277 12.611 26.9126 12.8667 24.9864C13.1209 23.0711 12.7658 20.7005 11.7049 18.3468L1.86555 22.7851ZM1.86555 22.7851C0.804585 20.4319 0.449503 18.0614 0.703712 16.1461M1.86555 22.7851L0.703712 16.1461M0.703712 16.1461C0.959365 14.2199 1.80816 12.8555 3.05488 12.2931L0.703712 16.1461ZM3.05494 12.2931C4.30165 11.731 5.8861 11.9982 7.49888 13.0817C9.10252 14.159 10.6439 15.9942 11.7048 18.3467L3.05494 12.2931Z" fill="#F5F5F5" stroke="#FF0330" stroke-width="1.25"/>
<path d="M44.0027 28.8394L44.0027 28.8394C45.2494 29.4018 46.8338 29.1348 48.4465 28.0512C50.0502 26.9738 51.5916 25.1383 52.6527 22.7851C53.7135 20.4319 54.0685 18.0614 53.8142 16.1461C53.5585 14.2198 52.7097 12.8554 51.463 12.2931C50.2164 11.731 48.6319 11.9982 47.0191 13.0817C45.4155 14.159 43.874 15.9943 42.8131 18.3467L44.0027 28.8394ZM44.0027 28.8394C42.7558 28.277 41.9069 26.9126 41.6512 24.9864C41.397 23.0711 41.7521 20.7005 42.8131 18.3468L44.0027 28.8394Z" fill="#F5F5F5" stroke="#FF0330" stroke-width="1.25"/>
<path d="M17.3628 0.696625L17.3629 0.696614C18.6997 0.408426 20.1929 1.00192 21.5425 2.39967C22.8845 3.7895 24.0065 5.90736 24.5503 8.43031L25.1613 8.29864L24.5503 8.43033C25.0941 10.9533 24.9441 13.3453 24.2937 15.1646C23.6397 16.9942 22.5236 18.1503 21.1866 18.4387C19.8498 18.7266 18.3566 18.1329 17.0069 16.735C15.6649 15.345 14.5428 13.2271 13.999 10.7044C13.4553 8.18152 13.6054 5.78946 14.2557 3.97021C14.9098 2.14058 16.0259 0.984692 17.3628 0.696625Z" fill="#F5F5F5" stroke="#FF0330" stroke-width="1.25"/>
<path d="M33.2501 18.4426L33.2499 18.4425C31.9132 18.1546 30.7974 16.9988 30.1435 15.1691C29.4934 13.3498 29.3434 10.9576 29.8867 8.43467C30.4302 5.91177 31.5522 3.79398 32.8941 2.40418C34.2437 1.00647 35.7369 0.412951 37.0738 0.701068L37.0738 0.701073C38.4108 0.989142 39.5269 2.14503 40.1809 3.97465C40.8312 5.79391 40.9812 8.18599 40.4374 10.709L40.4374 10.709C39.8937 13.2318 38.7717 15.3498 37.4297 16.7396C36.0801 18.1374 34.5869 18.7309 33.2501 18.4426Z" fill="#F5F5F5" stroke="#FF0330" stroke-width="1.25"/>
<path d="M9.53498 42.2139L9.53499 42.2139C9.77635 44.5909 11.109 46.2935 12.8221 47.3948C14.5499 48.5055 16.6323 48.9795 18.2593 48.888L18.2595 48.888C18.8423 48.8554 19.5176 48.8097 20.2606 48.7594C23.9299 48.511 29.2517 48.1507 33.2514 48.7051L33.1656 49.3241L33.2514 48.7051C35.5743 49.027 38.1497 49.0567 40.2882 48.427C42.4041 47.8039 44.0379 46.5587 44.663 44.331C45.9491 39.7471 43.117 36.8095 40.7246 35.0432C39.4323 34.0896 37.7602 32.2355 36.2753 30.3495C34.7852 28.4568 33.4234 26.4546 32.7683 25.1642C32.5072 24.6501 31.9433 23.972 31.1501 23.3651C30.3628 22.7627 29.3904 22.2621 28.3403 22.0588C27.2989 21.8573 26.1755 21.9461 25.0493 22.5261C23.9173 23.1091 22.7366 24.2124 21.6331 26.1174L9.53498 42.2139ZM9.53498 42.2139C9.28591 39.7628 9.90161 38.0506 10.8471 36.7678C11.8092 35.4623 13.1411 34.5613 14.4035 33.7929M9.53498 42.2139L14.4035 33.7929M14.4035 33.7929C15.7598 32.9675 17.3665 31.3859 18.7081 29.8811M14.4035 33.7929L18.7081 29.8811M18.7081 29.8811C20.0524 28.3731 21.2039 26.8587 21.633 26.1175L18.7081 29.8811Z" fill="#F5F5F5" stroke="#FF0330" stroke-width="1.25"/>
</svg>
